# xmcd
#
# Track frame offsets:
#	150
#	10805
#	28475
#	42107
#	65057
#	82967
#	98377
#	118525
#	134732
#	150522
#	159027
#	172197
#	193352
#	208422
#	224247
#	235570
#	247750
#	258690
#	268207
#	282650
#	294710
#	311347
#	329085
#
# Disc length: 4630 seconds
#
# Revision: 5
# Processed by: cddbd v1.5.2PL0 Copyright (c) Steve Scherf et al.
# Submitted via: EZCDAudioConverter 2.1.7.1
#
DISCID=66121417
DTITLE=V/A - For The Love Of Harry
DYEAR=1995
DGENRE=
TTITLE0=Randy Newman - Remember
TTITLE1=Marc Cohn - Turn On Your Radio
TTITLE2=Aimee Mann - One
TTITLE3=Fred Schneider - Coconut
TTITLE4=Joe Ely - Joy
TTITLE5=Ringo Starr with Stevie Nicks - Lay Down Your Arms
TTITLE6=Beckley/Lamm/Wilson - Without Her
TTITLE7=Lavern Baker - Jump Into The Fire
TTITLE8=Steve Forbert - The Moonbeam Song
TTITLE9=Peter Wolf and The Houseparty 5 - You're Breakin' My Heart
TTITLE10=Jennifer Trynin - Mournin' Glory Story
TTITLE11=Al Kooper - Salmon Falls
TTITLE12=Victoria Williams - The Puppy Song
TTITLE13=Marshall Crenshaw - Don't Forget Me
TTITLE14=Brian Wilson - This Could Be The Night
TTITLE15=Jellyfish - Think About Your Troubles
TTITLE16=Bill Lloyd - The Lottery Song
TTITLE17=Ron Sexsmith - Good Old Desk
TTITLE18=Adrian Belew - Me And My Arrow
TTITLE19=Richard Barone - I Guess The Lord Must Be In New York City
TTITLE20=The Roches with Mark Johnson - Spaceman
TTITLE21=John Cowan - Don't Leave Me
TTITLE22=Jimmy Webb - Lifeline
EXTD=
EXTT0=
EXTT1=
EXTT2=
EXTT3=
EXTT4=
EXTT5=
EXTT6=
EXTT7=
EXTT8=
EXTT9=
EXTT10=
EXTT11=
EXTT12=
EXTT13=
EXTT14=
EXTT15=
EXTT16=
EXTT17=
EXTT18=
EXTT19=
EXTT20=
EXTT21=
EXTT22=
PLAYORDER=
